<svg width="148" height="49" viewBox="0 0 148 49" fill="none" xmlns="http://www.w3.org/2000/svg">
<path d="M70.1948 24.9365H66.4437V28.1968H70.1948V24.9365Z" fill="#002837"/>
<path d="M130.702 24.9365H126.951V28.1968H130.702V24.9365Z" fill="#002837"/>
<path d="M47.6703 19.1181V1.51172H58.8985C61.9494 1.51172 63.7499 3.27235 63.7499 6.03157C63.7499 8.21265 62.5996 9.42145 60.624 9.89446V10.2624C62.6996 10.6565 64.05 12.1018 64.05 14.3092C64.05 17.2261 62.2995 19.1181 58.8985 19.1181H47.6703ZM51.7715 8.31777H57.6981C58.9735 8.31777 59.5737 7.9236 59.5737 6.74108C59.5737 5.55856 58.9735 5.13811 57.6981 5.13811H51.7715V8.31777ZM51.7715 15.4917H57.7732C59.1986 15.4917 59.8738 15.045 59.8738 13.7311C59.8738 12.4172 59.1986 11.9442 57.7732 11.9442H51.7715V15.4917V15.4917Z" fill="#002837"/>
<path d="M70.1448 19.1181H66.4437V1.51172H70.1448V19.1181V19.1181Z" fill="#002837"/>
<path d="M86.5924 5.979V19.1181H83.1414L82.8913 17.4626H82.6413C81.791 18.6188 80.2906 19.5123 78.415 19.5123C75.0391 19.5123 72.7885 17.4626 72.7885 13.1529V5.979H76.5395V12.5748C76.5395 15.0187 77.2147 16.1487 79.4153 16.1487C81.4409 16.1487 82.8413 14.9136 82.8413 12.5485V5.979H86.5924H86.5924Z" fill="#002837"/>
<path d="M96.4133 5.58447C101.015 5.58447 104.091 8.60646 103.715 13.4416H92.8373C93.1124 15.1497 94.4878 16.2534 96.4383 16.2534C98.1638 16.2534 99.3141 15.5176 99.8143 14.3088H103.79C103.09 17.4359 100.289 19.5119 96.4383 19.5119C92.0121 19.5119 88.9862 16.7001 88.9862 12.5482C88.9862 8.39623 92.0371 5.58447 96.4133 5.58447ZM99.6893 10.9189C99.4392 9.60503 98.1888 8.79041 96.4633 8.79041C94.7378 8.79041 93.1874 9.60503 92.9373 10.9189H99.6893H99.6893Z" fill="#002837"/>
<path d="M47.6703 42.6039V24.9976H58.8985C61.9494 24.9976 63.7499 26.7582 63.7499 29.5174C63.7499 31.6985 62.5996 32.9073 60.624 33.3803V33.7482C62.6996 34.1424 64.05 35.5877 64.05 37.795C64.05 40.7119 62.2995 42.6039 58.8985 42.6039H47.6703V42.6039ZM51.7715 31.8036H57.6981C58.9735 31.8036 59.5737 31.4094 59.5737 30.2269C59.5737 29.0444 58.9735 28.6239 57.6981 28.6239H51.7715V31.8036ZM51.7715 38.9775H57.7732C59.1986 38.9775 59.8738 38.5308 59.8738 37.2169C59.8738 35.903 59.1986 35.43 57.7732 35.43H51.7715V38.9775V38.9775Z" fill="#002837"/>
<path d="M70.1948 42.6034H66.4437V29.4644H70.1948V42.6034Z" fill="#002837"/>
<path d="M76.7394 42.6039H73.0383V24.9976H76.7394V42.6039Z" fill="#002837"/>
<path d="M83.1593 42.6039H79.4583V24.9976H83.1593V42.6039Z" fill="#002837"/>
<path d="M102.176 29.4644H106.152L108.277 39.3975H108.527L111.253 29.4644H115.905L118.63 39.3975H118.88L121.006 29.4644H124.982L121.406 42.6034H116.205L113.579 33.2747L110.953 42.6034H105.752L102.176 29.4644H102.176Z" fill="#002837"/>
<path d="M130.702 42.6034H126.951V29.4644H130.702V42.6034Z" fill="#002837"/>
<path d="M139.573 29.0703C141.648 29.0703 143.199 29.9375 144.049 31.0675H144.299L144.549 29.4645H148V41.2634C148 45.3891 145.199 47.8592 140.598 47.8592C136.572 47.8592 133.571 45.7307 133.296 42.6561H137.047C137.297 43.9175 138.522 44.7058 140.598 44.7058C143.149 44.7058 144.249 43.681 144.249 41.2634V40.1597H143.999C143.149 41.2897 141.648 42.1569 139.573 42.1569C135.947 42.1569 133.096 39.4765 133.096 35.6136C133.096 31.7507 135.947 29.0703 139.573 29.0703V29.0703ZM140.623 38.9246C142.999 38.9246 144.299 37.4005 144.299 35.6136C144.299 33.8267 142.999 32.3025 140.623 32.3025C138.247 32.3025 136.947 33.669 136.947 35.6136C136.947 37.5582 138.247 38.9246 140.623 38.9246Z" fill="#002837"/>
<path d="M3.94893 30.7038C9.89079 30.7038 16.3537 30.3832 21.7974 26.8799C27.5863 23.1542 31.4756 15.7491 31.4756 8.45312H27.3351C27.3351 14.2913 24.2406 20.2052 19.6348 23.1695C14.5801 26.4226 8.17125 26.3833 1.97296 26.3446C1.3097 26.3406 0.651393 26.3365 0 26.3365V30.6875C0.643437 30.6875 1.29353 30.6915 1.94857 30.6956C2.60727 30.6997 3.27458 30.7038 3.94892 30.7038H3.94893Z" fill="#002837"/>
<path d="M27.325 38.4072H0V42.6179H27.325V38.4072Z" fill="#002837"/>
<path d="M18.8233 0V4.19064C18.8233 14.7936 13.1748 16.9661 4.69332 16.9661H0.0166016V21.3868H4.69332C9.22846 21.3868 23.0302 21.3868 23.0302 4.19064V0H18.8233Z" fill="#649BD2"/>
<path d="M85.1028 29.4644H89.279L92.83 39.3975H93.1801L96.8061 29.4644H100.982L94.4054 46.2739C93.6802 48.0083 93.1801 48.4287 91.3296 48.4287H87.2284V45.1176H90.5794C91.3796 45.1176 91.5751 44.0581 91.7995 43.3226C91.854 43.1439 92.0048 42.6034 92.0048 42.6034H90.5543L85.1028 29.4644V29.4644Z" fill="#002837"/>
</svg>
